<svg width="87" height="106" viewBox="0 0 87 106" fill="none" xmlns="http://www.w3.org/2000/svg">
<path d="M68.25 0.5L74.2238 11.75L87 13.3025L77.625 21.7512L79.5 34.25L68.25 27.2188L57 34.25L58.875 21.7512L49.5 13.3025L62.625 11.75L68.25 0.5Z" fill="#3A3A3A"/>
<path d="M67.1887 42.6842L59.9212 40.8167C58.6185 45.8351 55.8576 50.3548 51.9873 53.8048C48.1171 57.2548 43.3111 59.4803 38.1766 60.2002C33.0421 60.9201 27.8095 60.102 23.1397 57.8493C18.4699 55.5967 14.5726 52.0105 11.94 47.5438C9.30745 43.0772 8.05781 37.9305 8.34896 32.7539C8.64011 27.5774 10.459 22.6033 13.5758 18.46C16.6926 14.3167 20.9675 11.1901 25.8604 9.4753C30.7534 7.76048 36.0448 7.53433 41.0662 8.82541L42.9374 1.56166C35.6174 -0.342392 27.8696 0.270467 20.94 3.30171C14.0103 6.33295 8.30128 11.6064 4.73082 18.2743C1.16036 24.9422 -0.0640874 32.6171 1.25434 40.0649C2.57276 47.5128 6.35746 54.3009 11.9999 59.3379V105.5L34.4999 90.5004L56.9999 105.5V59.4054C61.9804 54.9664 65.5272 49.1456 67.1887 42.6842ZM49.4999 91.4867L34.4999 81.4854L19.4999 91.4867V64.4379C24.1538 66.7758 29.2891 67.9953 34.4973 67.9992C39.7054 68.0031 44.8425 66.7914 49.4999 64.4604V91.4867Z" fill="#3A3A3A"/>
</svg>
