<svg width="42" height="42" viewBox="0 0 42 42" fill="none" xmlns="http://www.w3.org/2000/svg">
<path d="M21 0.166626C9.51249 0.166626 0.166656 9.51246 0.166656 21C0.166656 32.4875 9.51249 41.8333 21 41.8333C32.4875 41.8333 41.8333 32.4875 41.8333 21C41.8333 9.51246 32.4875 0.166626 21 0.166626ZM29.7208 22.5416L21 31.2625L12.2792 22.5416C11.7403 22.0097 11.3124 21.376 11.0204 20.6774C10.7284 19.9787 10.578 19.229 10.578 18.4718C10.578 17.7146 10.7284 16.965 11.0204 16.2663C11.3124 15.5677 11.7403 14.934 12.2792 14.402C12.8111 13.8635 13.4446 13.4359 14.1431 13.144C14.8415 12.8522 15.5909 12.7019 16.3479 12.7019C17.1049 12.7019 17.8543 12.8522 18.5527 13.144C19.2512 13.4359 19.8847 13.8635 20.4167 14.402L21 14.9833L21.5812 14.402C22.1132 13.8635 22.7467 13.4359 23.4452 13.144C24.1436 12.8522 24.893 12.7019 25.65 12.7019C26.407 12.7019 27.1564 12.8522 27.8548 13.144C28.5533 13.4359 29.1868 13.8635 29.7187 14.402C30.2578 14.9339 30.6858 15.5674 30.978 16.266C31.2702 16.9646 31.4208 17.7142 31.421 18.4714C31.4212 19.2286 31.271 19.9783 30.9791 20.677C30.6873 21.3757 30.2596 22.0095 29.7208 22.5416Z" fill="#3A3A3A"/>
</svg>
